<?xml version="1.0" encoding="UTF-8"?>
<svg version="1.1" xmlns="http://www.w3.org/2000/svg" width="512" height="512">
<path d="M0 0 C1.45108658 0.00273422 1.45108658 0.00273422 2.93148804 0.00552368 C17.26440977 0.05095174 31.21023917 0.55983928 45.3125 3.3125 C46.65803955 3.55395752 46.65803955 3.55395752 48.03076172 3.80029297 C107.84088904 14.62287989 165.35495829 48.68064457 202.3125 97.3125 C202.72918945 97.85277832 203.14587891 98.39305664 203.57519531 98.94970703 C211.2584873 108.9447116 218.00092968 119.40459036 224.3125 130.3125 C224.70679199 130.98974121 225.10108398 131.66698242 225.50732422 132.36474609 C247.02446876 169.77429761 256.78824631 212.57930467 256.625 255.4375 C256.62226578 256.9278476 256.62226578 256.9278476 256.61947632 258.44830322 C256.57469978 272.942192 256.11360213 287.05386097 253.3125 301.3125 C253.15152832 302.20807617 252.99055664 303.10365234 252.82470703 304.02636719 C243.90006671 353.35622348 220.02339136 398.37831732 185.3125 434.3125 C184.71356934 434.93334473 184.11463867 435.55418945 183.49755859 436.19384766 C175.83373497 444.09500259 168.09251606 451.64016955 159.3125 458.3125 C158.77222168 458.72918945 158.23194336 459.14587891 157.67529297 459.57519531 C147.6802884 467.2584873 137.22040964 474.00092968 126.3125 480.3125 C125.63525879 480.70679199 124.95801758 481.10108398 124.26025391 481.50732422 C101.3416244 494.68961173 75.76677437 503.29510918 49.9375 508.625 C49.22682373 508.77243652 48.51614746 508.91987305 47.78393555 509.07177734 C32.14141634 512.05713787 16.50580394 512.6873098 0.625 512.625 C-0.34239105 512.62317719 -1.3097821 512.62135437 -2.30648804 512.61947632 C-16.63940977 512.57404826 -30.58523917 512.06516072 -44.6875 509.3125 C-45.58452637 509.15152832 -46.48155273 508.99055664 -47.40576172 508.82470703 C-107.21588904 498.00212011 -164.72995829 463.94435543 -201.6875 415.3125 C-202.10418945 414.77222168 -202.52087891 414.23194336 -202.95019531 413.67529297 C-227.44137989 381.81531653 -243.89948249 345.29345678 -252 305.9375 C-252.22103394 304.87172729 -252.22103394 304.87172729 -252.4465332 303.78442383 C-255.28509616 288.91647341 -256.03783947 274.03839294 -256.00317383 258.93701172 C-256.0000179 256.07871118 -256.02357578 253.22145484 -256.04882812 250.36328125 C-256.09420177 237.12970195 -254.85645966 224.36133454 -252.6875 211.3125 C-252.49937744 210.17474121 -252.31125488 209.03698242 -252.11743164 207.86474609 C-244.33992041 164.60067925 -224.36268712 123.54603479 -195.6875 90.3125 C-194.71876953 89.17748047 -194.71876953 89.17748047 -193.73046875 88.01953125 C-183.08809817 75.8713568 -171.59916267 64.04618663 -158.6875 54.3125 C-158.15012207 53.89871094 -157.61274414 53.48492187 -157.05908203 53.05859375 C-147.0611221 45.37173411 -136.59938153 38.62636855 -125.6875 32.3125 C-125.01025879 31.91820801 -124.33301758 31.52391602 -123.63525391 31.11767578 C-100.7166244 17.93538827 -75.14177437 9.32989082 -49.3125 4 C-48.60182373 3.85256348 -47.89114746 3.70512695 -47.15893555 3.55322266 C-31.51641634 0.56786213 -15.88080394 -0.0623098 0 0 Z " fill="#EBE4DC" transform="translate(255.6875,-0.3125)"/>
<path d="M0 0 C1.45108658 0.00273422 1.45108658 0.00273422 2.93148804 0.00552368 C17.26440977 0.05095174 31.21023917 0.55983928 45.3125 3.3125 C46.65803955 3.55395752 46.65803955 3.55395752 48.03076172 3.80029297 C107.84088904 14.62287989 165.35495829 48.68064457 202.3125 97.3125 C202.72918945 97.85277832 203.14587891 98.39305664 203.57519531 98.94970703 C211.2584873 108.9447116 218.00092968 119.40459036 224.3125 130.3125 C224.70679199 130.98974121 225.10108398 131.66698242 225.50732422 132.36474609 C247.02446876 169.77429761 256.78824631 212.57930467 256.625 255.4375 C256.62226578 256.9278476 256.62226578 256.9278476 256.61947632 258.44830322 C256.57469978 272.942192 256.11360213 287.05386097 253.3125 301.3125 C253.15152832 302.20807617 252.99055664 303.10365234 252.82470703 304.02636719 C244.9087447 347.78087946 225.17817957 387.01286575 197.3125 421.3125 C196.66796875 422.11300781 196.0234375 422.91351563 195.359375 423.73828125 C194.0632124 425.30814809 192.69776866 426.82067222 191.3125 428.3125 C190.6525 428.3125 189.9925 428.3125 189.3125 428.3125 C188.9825 327.0025 188.6525 225.6925 188.3125 121.3125 C173.13164863 133.11938246 173.13164863 133.11938246 157.99804688 144.98583984 C155.10441173 147.26336206 152.20830677 149.53774007 149.3125 151.8125 C148.14582204 152.7291523 146.97915536 153.64581895 145.8125 154.5625 C121.3125 173.8125 121.3125 173.8125 96.8125 193.0625 C96.23532227 193.5160083 95.65814453 193.9695166 95.06347656 194.43676758 C93.89359984 195.35593313 92.72367777 196.27504095 91.55371094 197.1940918 C88.68578843 199.44706094 85.8185901 201.70093723 82.953125 203.95703125 C75.65359862 209.70202887 68.329451 215.41453617 60.99414062 221.11376953 C54.64466972 226.04908931 48.31658164 231.01100748 41.99804688 235.98583984 C40.27541845 237.34168614 38.55193022 238.69643149 36.828125 240.05078125 C36.24796631 240.50662598 35.66780762 240.9624707 35.07006836 241.43212891 C33.90451002 242.34754311 32.73866016 243.26258625 31.57250977 244.17724609 C28.58578574 246.52087552 25.60593299 248.87249557 22.63671875 251.23828125 C19.21739046 253.9586888 15.77707749 256.64996891 12.3125 259.3125 C11.44367188 259.98023438 10.57484375 260.64796875 9.6796875 261.3359375 C8.91914063 261.88507813 8.15859375 262.43421875 7.375 263 C6.74722656 263.45761719 6.11945313 263.91523438 5.47265625 264.38671875 C2.09612507 265.83380354 -0.03004442 265.83391412 -3.6875 265.3125 C-6.82071939 263.54082678 -9.49727654 261.30792001 -12.25 259 C-13.03793945 258.36280029 -13.82587891 257.72560059 -14.63769531 257.0690918 C-16.24103171 255.77218017 -17.83923691 254.46889814 -19.43212891 253.15917969 C-22.56144739 250.59691891 -25.74748791 248.1108959 -28.9375 245.625 C-30.0682342 244.73634579 -31.19844623 243.84702676 -32.328125 242.95703125 C-35.77933957 240.2397535 -39.23325955 237.52592958 -42.6875 234.8125 C-43.85417796 233.8958477 -45.02084464 232.97918105 -46.1875 232.0625 C-46.765 231.60875 -47.3425 231.155 -47.9375 230.6875 C-81.1875 204.5625 -81.1875 204.5625 -82.93652344 203.18823242 C-84.10640016 202.26906687 -85.27632223 201.34995905 -86.44628906 200.4309082 C-89.31421157 198.17793906 -92.1814099 195.92406277 -95.046875 193.66796875 C-101.57735886 188.52823608 -108.12499359 183.41129658 -114.6875 178.3125 C-121.81079278 172.77799557 -128.91446692 167.2194184 -136.00195312 161.63916016 C-138.89558827 159.36163794 -141.79169323 157.08725993 -144.6875 154.8125 C-145.85417796 153.8958477 -147.02084464 152.97918105 -148.1875 152.0625 C-148.765 151.60875 -149.3425 151.155 -149.9375 150.6875 C-155.1875 146.5625 -155.1875 146.5625 -156.93896484 145.1862793 C-158.10065826 144.27356652 -159.2624415 143.36096806 -160.42431641 142.44848633 C-163.41783662 140.0972749 -166.40956754 137.74383961 -169.3984375 135.38671875 C-170.01203125 134.90332031 -170.625625 134.41992188 -171.2578125 133.921875 C-172.41205319 133.01247325 -173.56575219 132.10238329 -174.71875 131.19140625 C-178.9931177 127.8255998 -183.33128604 124.57966047 -187.6875 121.3125 C-188.0175 222.2925 -188.3475 323.2725 -188.6875 427.3125 C-195.07757225 425.71498194 -197.82267276 420.38426383 -201.6875 415.3125 C-202.1201416 414.75191895 -202.5527832 414.19133789 -202.99853516 413.61376953 C-227.46959578 381.77719743 -243.90620491 345.26079624 -252 305.9375 C-252.22103394 304.87172729 -252.22103394 304.87172729 -252.4465332 303.78442383 C-255.28509616 288.91647341 -256.03783947 274.03839294 -256.00317383 258.93701172 C-256.0000179 256.07871118 -256.02357578 253.22145484 -256.04882812 250.36328125 C-256.09420177 237.12970195 -254.85645966 224.36133454 -252.6875 211.3125 C-252.49937744 210.17474121 -252.31125488 209.03698242 -252.11743164 207.86474609 C-244.33992041 164.60067925 -224.36268712 123.54603479 -195.6875 90.3125 C-194.71876953 89.17748047 -194.71876953 89.17748047 -193.73046875 88.01953125 C-183.08809817 75.8713568 -171.59916267 64.04618663 -158.6875 54.3125 C-158.15012207 53.89871094 -157.61274414 53.48492187 -157.05908203 53.05859375 C-147.0611221 45.37173411 -136.59938153 38.62636855 -125.6875 32.3125 C-125.01025879 31.91820801 -124.33301758 31.52391602 -123.63525391 31.11767578 C-100.7166244 17.93538827 -75.14177437 9.32989082 -49.3125 4 C-48.60182373 3.85256348 -47.89114746 3.70512695 -47.15893555 3.55322266 C-31.51641634 0.56786213 -15.88080394 -0.0623098 0 0 Z " fill="#CD2A01" transform="translate(255.6875,-0.3125)"/>
<path d="M0 0 C5.88869997 3.92579998 11.35671415 7.75673151 16.75 12.25 C21.653052 16.28436034 26.57653449 20.27376207 31.625 24.125 C36.08791756 27.53134521 40.52597938 30.96484772 44.9375 34.4375 C45.52192871 34.89745361 46.10635742 35.35740723 46.70849609 35.83129883 C48.47267685 37.2204271 50.2363689 38.61017398 52 40 C59.6481782 46.02396237 67.31208177 52.0268049 75 58 C82.12329278 63.53450443 89.22696692 69.0930816 96.31445312 74.67333984 C99.20808827 76.95086206 102.10419323 79.22524007 105 81.5 C106.16667796 82.4166523 107.33334464 83.33331895 108.5 84.25 C109.0775 84.70375 109.655 85.1575 110.25 85.625 C143.5 111.75 143.5 111.75 145.24926758 113.12451172 C146.41826275 114.04294971 147.5873712 114.96124354 148.7565918 115.87939453 C152.20807275 118.59007216 155.65527335 121.3060648 159.09936523 124.02612305 C160.81992816 125.38084874 162.54632513 126.7278567 164.2734375 128.07421875 C167.01307558 130.21238242 169.71678915 132.39071549 172.4140625 134.58203125 C173.92151298 135.78430822 175.42932016 136.98613809 176.9375 138.1875 C177.98417847 139.0535083 177.98417847 139.0535083 179.05200195 139.93701172 C182.45408291 142.61808139 184.37612387 143.91698945 188.7578125 144.5 C191.86898863 144.02020416 193.42725378 143.62221239 195.9375 141.8125 C196.69417969 141.26722656 197.45085937 140.72195313 198.23046875 140.16015625 C203.19841748 136.28529638 208.07740814 132.30411282 212.9453125 128.3046875 C216.45625546 125.42819258 220.01650087 122.62772638 223.625 119.875 C228.00545664 116.53239116 232.3600175 113.16098749 236.6875 109.75 C242.10866771 105.4788233 247.54949115 101.2336671 253 97 C260.12337349 91.46560019 267.22696763 85.90691785 274.31445312 80.32666016 C277.20808827 78.04913794 280.10419323 75.77475993 283 73.5 C284.16667796 72.5833477 285.33334464 71.66668105 286.5 70.75 C311 51.5 311 51.5 335.5 32.25 C336.36588745 31.5696167 336.36588745 31.5696167 337.24926758 30.87548828 C338.41826275 29.95705029 339.5873712 29.03875646 340.7565918 28.12060547 C343.6385694 25.85719671 346.51866149 23.59147818 349.39453125 21.3203125 C356.00046679 16.10758758 362.64021373 10.94007466 369.3125 5.8125 C370.06055908 5.23516113 370.80861816 4.65782227 371.5793457 4.06298828 C372.27116943 3.53302246 372.96299316 3.00305664 373.67578125 2.45703125 C374.6025769 1.7451062 374.6025769 1.7451062 375.5480957 1.01879883 C377 0 377 0 378 0 C378.58636307 39.02334864 379.06580178 78.04668756 379.40348886 117.07301493 C379.44351939 121.68882025 379.4844277 126.30461739 379.52587891 130.92041016 C379.53411573 131.83926391 379.54235255 132.75811767 379.55083898 133.70481548 C379.68599679 148.54916452 379.89212119 163.39171196 380.12486133 178.23481515 C380.36239358 193.48521846 380.52276409 208.73505297 380.61273694 223.98704696 C380.67057928 233.38623344 380.787307 242.78078597 380.98142478 252.17816189 C381.10907125 258.63784684 381.16120078 265.09550762 381.15619734 271.55643794 C381.15547839 275.27645661 381.1858484 278.98866582 381.30673409 282.7068882 C381.73132002 296.36693471 381.75531696 307.49377929 371.97632623 317.97470546 C367.84325749 321.91896341 363.51117457 325.50096487 359 329 C357.862053 329.96822673 356.73101256 330.94472559 355.61178207 331.93452835 C353.15528847 334.09077445 350.62180298 336.04897995 348 338 C346.87995576 338.86034837 345.76018278 339.72104995 344.640625 340.58203125 C335.18818933 347.76031093 325.24374547 354.01794783 315 360 C314.21979492 360.47211914 313.43958984 360.94423828 312.63574219 361.43066406 C311.85618164 361.88924805 311.07662109 362.34783203 310.2734375 362.8203125 C309.57395996 363.23812988 308.87448242 363.65594727 308.15380859 364.08642578 C305.55006346 365.19084817 303.80226216 365.35319528 301 365 C298.84564799 362.93892301 297.08630888 361.00378038 295.25 358.6875 C294.72341797 358.048125 294.19683594 357.40875 293.65429688 356.75 C292.08893663 354.84417866 290.54315278 352.92381762 289 351 C287.50094626 349.16589286 286.00104388 347.33247875 284.5 345.5 C283.78585937 344.62085938 283.07171875 343.74171875 282.3359375 342.8359375 C278.64107329 338.35019934 274.84039178 333.95645166 271.05078125 329.55078125 C264.80572679 322.28968997 258.6036885 314.99446571 252.5625 307.5625 C248.15086945 302.14429421 243.60676358 296.8472915 239.05078125 291.55078125 C232.80572679 284.28968997 226.6036885 276.99446571 220.5625 269.5625 C216.15086945 264.14429421 211.60676358 258.8472915 207.05078125 253.55078125 C200.80572679 246.28968997 194.6036885 238.99446571 188.5625 231.5625 C184.60491812 226.69870975 180.53457554 221.94118769 176.44165039 217.19165039 C173.41054711 213.66701081 170.43014684 210.10960118 167.5 206.5 C163.11287098 201.09923828 158.58776588 195.825323 154.05078125 190.55078125 C147.80572679 183.28968997 141.6036885 175.99446571 135.5625 168.5625 C131.15086945 163.14429421 126.60676358 157.8472915 122.05078125 152.55078125 C115.80572679 145.28968997 109.6036885 137.99446571 103.5625 130.5625 C99.15086945 125.14429421 94.60676358 119.8472915 90.05078125 114.55078125 C83.80572679 107.28968997 77.6036885 99.99446571 71.5625 92.5625 C67.15086945 87.14429421 62.60676358 81.8472915 58.05078125 76.55078125 C51.80572679 69.28968997 45.6036885 61.99446571 39.5625 54.5625 C35.15086945 49.14429421 30.60676358 43.8472915 26.05078125 38.55078125 C18.81644966 30.13946277 11.67399576 21.65908375 4.6796875 13.046875 C3.16253021 11.12984433 3.16253021 11.12984433 2 10 C1.67 108.67 1.34 207.34 1 309 C0.01 308.67 -0.98 308.34 -2 308 C-1.34 307.67 -0.68 307.34 0 307 C0 205.69 0 104.38 0 0 Z " fill="#D8CABC" transform="translate(67,120)"/>
<path d="M0 0 C1.45108658 0.00273422 1.45108658 0.00273422 2.93148804 0.00552368 C17.26440977 0.05095174 31.21023917 0.55983928 45.3125 3.3125 C46.65803955 3.55395752 46.65803955 3.55395752 48.03076172 3.80029297 C88.93877149 11.2025593 128.08926508 28.99893171 160.3125 55.3125 C159.19274077 58.67177769 158.57647398 59.12164756 155.796875 61.10546875 C155.05131348 61.64478027 154.30575195 62.1840918 153.53759766 62.73974609 C152.72081543 63.32062988 151.9040332 63.90151367 151.0625 64.5 C149.31396604 65.76535585 147.5666115 67.03234274 145.8203125 68.30078125 C144.91055664 68.96029785 144.00080078 69.61981445 143.06347656 70.29931641 C138.6419715 73.53500426 134.2886245 76.85807551 129.9375 80.1875 C128.63111572 81.18535522 128.63111572 81.18535522 127.29833984 82.20336914 C124.63535955 84.23839881 121.97371358 86.27516067 119.3125 88.3125 C108.36522897 96.69337782 97.39115517 105.02204566 86.26513672 113.16455078 C80.11240881 117.68374291 74.08711089 122.35113004 68.08129883 127.06298828 C61.95070357 131.85642479 55.70053384 136.47100055 49.41796875 141.0625 C43.97441767 145.05384351 38.62505477 149.14882594 33.3125 153.3125 C31.83369962 154.46140912 30.35453106 155.60984448 28.875 156.7578125 C26.51798916 158.58705787 24.17080753 160.42570848 21.83984375 162.28808594 C19.34739646 164.27684315 16.83243629 166.23375192 14.3125 168.1875 C13.5596875 168.80109375 12.806875 169.4146875 12.03125 170.046875 C7.43303488 173.56029994 3.72707383 175.3775407 -2.14746094 174.97509766 C-7.21482787 173.6532182 -10.86322253 170.36942511 -14.8125 167.0625 C-16.66876281 165.57748975 -18.52553784 164.09311956 -20.3828125 162.609375 C-21.73874512 161.50625977 -21.73874512 161.50625977 -23.12207031 160.38085938 C-26.57572421 157.59637557 -30.11974857 154.94797004 -33.6875 152.3125 C-40.80000337 147.00324369 -47.85495462 141.61940695 -54.91015625 136.234375 C-60.78330775 131.75470777 -66.6791471 127.30735838 -72.59643555 122.88623047 C-78.09264411 118.77355264 -83.54672579 114.60686385 -89 110.4375 C-95.74200412 105.28425903 -102.52645685 100.19821521 -109.375 95.1875 C-116.31403024 90.10946007 -123.12598328 84.89214291 -129.89013672 79.58398438 C-136.3021932 74.56966293 -142.83377148 69.72854272 -149.40820312 64.9296875 C-153.23584786 62.13395733 -157.01776399 59.31567717 -160.6875 56.3125 C-130.6394744 30.02858991 -91.81979928 13.28196876 -53.125 4.875 C-52.04541016 4.64014893 -50.96582031 4.40529785 -49.85351562 4.16333008 C-33.28638548 0.78358548 -16.86999073 -0.06619096 0 0 Z " fill="#EBE4DC" transform="translate(255.6875,-0.3125)"/>
<path d="M0 0 C3.07743731 0.59555162 4.98129018 1.51126265 7.41796875 3.46875 C8.03220703 3.95730469 8.64644531 4.44585937 9.27929688 4.94921875 C10.22385742 5.71685547 10.22385742 5.71685547 11.1875 6.5 C11.82880859 7.01175781 12.47011719 7.52351563 13.13085938 8.05078125 C17.74020337 11.74020337 17.74020337 11.74020337 19 13 C19.09716679 14.64725164 19.12371562 16.29870053 19.12304783 17.94881535 C19.12503888 19.02717563 19.12702993 20.10553591 19.12908131 21.21657377 C19.12616847 22.41596396 19.12325563 23.61535414 19.12025452 24.85108948 C19.12110894 26.11376158 19.12196337 27.37643369 19.12284368 28.67736858 C19.12509102 32.19820686 19.12106413 35.71901501 19.11606562 39.23984945 C19.1117647 43.03059668 19.11320729 46.82134208 19.1139679 50.61209106 C19.11449336 57.18515491 19.11134423 63.75820886 19.10573006 70.33127022 C19.09761808 79.83492356 19.09500015 89.3385721 19.09374207 98.84222852 C19.09155107 114.25964921 19.0848897 129.67706461 19.07543945 145.09448242 C19.06626657 160.0749509 19.05918513 175.05541795 19.05493164 190.03588867 C19.05466892 190.95860758 19.05440619 191.88132649 19.05413551 192.83200658 C19.05283051 197.46081396 19.05156679 202.08962134 19.05032361 206.71842873 C19.03994951 245.14562285 19.0223299 283.57281108 19 322 C12.64969587 320.72613907 9.74924081 314.92008123 6 310 C5.5673584 309.43941895 5.1347168 308.87883789 4.68896484 308.30126953 C-19.78209578 276.46469743 -36.21870491 239.94829624 -44.3125 200.625 C-44.53353394 199.55922729 -44.53353394 199.55922729 -44.7590332 198.47192383 C-47.59759616 183.60397341 -48.35033947 168.72589294 -48.31567383 153.62451172 C-48.3125179 150.76621118 -48.33607578 147.90895484 -48.36132812 145.05078125 C-48.40670177 131.81720195 -47.16895966 119.04883454 -45 106 C-44.81187744 104.86224121 -44.62375488 103.72448242 -44.42993164 102.55224609 C-37.77401165 65.52727 -22.0726493 30.35670533 0 0 Z " fill="#AC2403" transform="translate(48,105)"/>
<path d="M0 0 C5.44598651 2.46011777 7.69537188 6.58176908 10.6875 11.5 C11.21005371 12.34804199 11.73260742 13.19608398 12.27099609 14.06982422 C37.36809882 55.29370174 50.4960797 100.92853986 50.3125 149.125 C50.31067719 150.11856506 50.30885437 151.11213013 50.30697632 152.13580322 C50.26219978 166.629692 49.80110213 180.74136097 47 195 C46.83902832 195.89557617 46.67805664 196.79115234 46.51220703 197.71386719 C38.5962447 241.46837946 18.86567957 280.70036575 -9 315 C-9.64453125 315.80050781 -10.2890625 316.60101563 -10.953125 317.42578125 C-12.2492876 318.99564809 -13.61473134 320.50817222 -15 322 C-15.66 322 -16.32 322 -17 322 C-17.32058349 282.82275865 -17.56720469 243.64568852 -17.71491461 204.4673971 C-17.73242409 199.83999762 -17.75054464 195.21260071 -17.76904297 190.58520508 C-17.77271531 189.66399053 -17.77638766 188.74277598 -17.78017129 187.79364584 C-17.84105749 172.88563168 -17.95142203 157.97837485 -18.08013915 143.07080968 C-18.21115379 127.76930592 -18.28884201 112.46819822 -18.31723893 97.16615659 C-18.33643084 87.72670113 -18.39699236 78.28938622 -18.51083054 68.85058991 C-18.58495198 62.37417316 -18.60717669 55.89885957 -18.58901928 49.42204966 C-18.58006703 45.68665366 -18.59357725 41.95499073 -18.66887665 38.22026253 C-19.12132248 14.65212303 -19.12132248 14.65212303 -13.88187027 8.80709267 C-10.54387777 5.85556885 -7.01536922 3.89895002 -3 2 C-2.01 1.34 -1.02 0.68 0 0 Z " fill="#AC2403" transform="translate(462,106)"/>
</svg>
